<svg width="18" height="20" viewBox="0 0 18 20" fill="none" xmlns="http://www.w3.org/2000/svg">
<path d="M17.238 4.28845C14.142 3.25645 10.361 1.29551 9.54999 0.473511C9.40999 0.331511 9.22 0.251512 9.021 0.249512C8.844 0.253512 8.63095 0.326454 8.48895 0.465454C7.51595 1.42445 4.56696 3.34245 0.795959 4.40845C0.472959 4.49945 0.25 4.79449 0.25 5.13049C0.25 13.3615 1.52898 17.6454 8.79498 19.7214C8.86198 19.7404 8.93198 19.7505 9.00098 19.7505C9.06998 19.7505 9.13997 19.7404 9.20697 19.7214C16.517 17.6324 17.75 13.4925 17.75 5.00049C17.751 4.67749 17.544 4.39045 17.238 4.28845ZM9.00195 18.2195C2.99695 16.4425 1.80599 13.3245 1.75299 5.69153C5.05899 4.67153 7.69401 3.08248 9.03101 1.99048C10.55 3.11548 13.777 4.65255 16.25 5.53455C16.2 13.2815 15.013 16.4395 9.00195 18.2195Z" fill="#E30022"/>
</svg>
