<svg width="20" height="20" viewBox="0 0 20 20" fill="none" xmlns="http://www.w3.org/2000/svg">
<path d="M17.978 5.31539L12.978 1.29398C11.252 -0.0934978 8.748 -0.0934978 7.022 1.29398L2.022 5.31539C0.896003 6.22071 0.25 7.56816 0.25 9.01266V15.0067C0.25 17.6236 2.381 19.7534 5 19.7534H7.75V15.0067C7.75 13.7683 8.759 12.76 10 12.76C11.241 12.76 12.25 13.7683 12.25 15.0067V19.7534H15C17.619 19.7534 19.75 17.6246 19.75 15.0067V9.01266C19.75 7.56816 19.104 6.22071 17.978 5.31539ZM18.25 15.0067C18.25 16.7964 16.792 18.2529 15 18.2529H13.75V15.0067C13.75 12.941 12.068 11.2594 10 11.2594C7.932 11.2594 6.25 12.941 6.25 15.0067V18.2529H5C3.208 18.2529 1.75 16.7964 1.75 15.0067V9.01266C1.75 8.02531 2.191 7.10402 2.961 6.4848L7.961 2.46339C9.143 1.51406 10.857 1.51406 12.038 2.46339L17.038 6.4848C17.808 7.10402 18.249 8.02531 18.249 9.01266V15.0067H18.25Z" fill="white"/>
</svg>
