<svg width="16" height="16" viewBox="0 0 16 16" fill="none" xmlns="http://www.w3.org/2000/svg">
<path d="M14.9277 3.63275L12.3672 1.0722C12.119 0.823955 11.7897 0.6875 11.4395 0.6875H7.25C5.699 0.6875 4.4375 1.949 4.4375 3.5V3.6875H3.5C1.949 3.6875 0.6875 4.949 0.6875 6.5V12.5C0.6875 14.051 1.949 15.3125 3.5 15.3125H8.75C10.301 15.3125 11.5625 14.051 11.5625 12.5V12.3125H12.5C14.051 12.3125 15.3125 11.051 15.3125 9.5V4.56046C15.3125 4.21021 15.176 3.88025 14.9277 3.63275ZM12.3125 2.60754L13.3918 3.68677H13.109C12.6703 3.68677 12.3125 3.32901 12.3125 2.89026V2.60754ZM10.4375 12.5C10.4375 13.4307 9.68075 14.1875 8.75 14.1875H3.5C2.56925 14.1875 1.8125 13.4307 1.8125 12.5V6.5C1.8125 5.56925 2.56925 4.8125 3.5 4.8125H4.4375V9.5C4.4375 11.051 5.699 12.3125 7.25 12.3125H10.4375V12.5ZM12.5 11.1875H7.25C6.31925 11.1875 5.5625 10.4307 5.5625 9.5V3.5C5.5625 2.56925 6.31925 1.8125 7.25 1.8125H11.1875V2.89099C11.1875 3.95074 12.0493 4.8125 13.109 4.8125H14.1875V9.5C14.1875 10.43 13.4307 11.1875 12.5 11.1875Z" fill="white"/>
</svg>
