<svg width="33" height="24" viewBox="0 0 33 24" fill="none" xmlns="http://www.w3.org/2000/svg">
<path d="M26.0295 20.4694C26.3225 20.7624 26.3225 21.2374 26.0295 21.5304C25.8835 21.6764 25.6915 21.7504 25.4995 21.7504C25.3075 21.7504 25.1155 21.6774 24.9695 21.5304L15.9695 12.5304C15.6765 12.2374 15.6765 11.7624 15.9695 11.4694L24.9695 2.46938C25.2625 2.17638 25.7375 2.17638 26.0305 2.46938C26.3235 2.76238 26.3235 3.23742 26.0305 3.53042L17.5605 12.0004L26.0295 20.4694Z" fill="white"/>
<path d="M17.0295 20.4694C17.3225 20.7624 17.3225 21.2374 17.0295 21.5304C16.8835 21.6764 16.6915 21.7504 16.4995 21.7504C16.3075 21.7504 16.1155 21.6774 15.9695 21.5304L6.96948 12.5304C6.67648 12.2374 6.67648 11.7624 6.96948 11.4694L15.9695 2.46938C16.2625 2.17638 16.7375 2.17638 17.0305 2.46938C17.3235 2.76238 17.3235 3.23742 17.0305 3.53042L8.56048 12.0004L17.0295 20.4694Z" fill="white"/>
</svg>
