<svg width="20" height="20" viewBox="0 0 20 20" fill="none" xmlns="http://www.w3.org/2000/svg">
<path d="M19.75 7.00098C19.75 6.91998 19.737 6.83994 19.711 6.76294L18.623 3.49805C17.976 1.55605 16.165 0.25 14.117 0.25H5.883C3.835 0.25 2.02501 1.55505 1.37701 3.49805L0.289001 6.76294C0.263001 6.83994 0.25 6.91998 0.25 7.00098C0.251 7.97898 0.636 8.86301 1.25 9.53101V16C1.25 18.068 2.932 19.75 5 19.75H8.77698V16C8.77698 15.311 9.33798 14.75 10.027 14.75C10.716 14.75 11.277 15.311 11.277 16V19.75H15C17.068 19.75 18.75 18.068 18.75 16V9.53101C19.364 8.86201 19.749 7.97898 19.75 7.00098ZM2.79999 3.97205C3.24299 2.64305 4.482 1.75 5.883 1.75H14.117C15.518 1.75 16.757 2.64305 17.2 3.97205L18.247 7.11304C18.188 8.32004 17.226 9.25 16.01 9.25C14.997 9.25 14.007 8.60595 13.707 7.75195C13.602 7.45095 13.318 7.25 12.999 7.25H12.996C12.676 7.251 12.392 7.45496 12.289 7.75696C11.998 8.60796 11.013 9.25 9.99799 9.25C8.98299 9.25 7.99797 8.60796 7.70697 7.75696C7.60397 7.45496 7.32 7.251 7 7.25H6.99701C6.67901 7.25 6.394 7.45095 6.289 7.75195C5.989 8.60595 4.999 9.25 3.987 9.25C2.771 9.25 1.809 8.32004 1.75 7.11304L2.79999 3.97205ZM15 18.25H12.777V16C12.777 14.483 11.543 13.25 10.027 13.25C8.51098 13.25 7.27698 14.483 7.27698 16V18.25H5C3.759 18.25 2.75 17.241 2.75 16V10.521C3.14 10.66 3.55299 10.75 3.98999 10.75C5.14399 10.75 6.25897 10.232 6.99597 9.42297C7.72897 10.233 8.842 10.75 10 10.75C11.158 10.75 12.271 10.232 13.004 9.42297C13.741 10.233 14.856 10.75 16.01 10.75C16.447 10.75 16.86 10.66 17.25 10.521V16C17.25 17.24 16.241 18.25 15 18.25Z" fill="#E30022"/>
</svg>
