<svg width="20" height="16" viewBox="0 0 20 16" fill="none" xmlns="http://www.w3.org/2000/svg">
<path d="M19 6.75H19.75V5C19.75 2.381 17.619 0.25 15 0.25H5C2.381 0.25 0.25 2.381 0.25 5V6.75H1C1.689 6.75 2.25 7.311 2.25 8C2.25 8.689 1.689 9.25 1 9.25H0.25V11C0.25 13.619 2.381 15.75 5 15.75H15C17.619 15.75 19.75 13.619 19.75 11V9.25H19C18.311 9.25 17.75 8.689 17.75 8C17.75 7.311 18.311 6.75 19 6.75ZM18.25 10.646V11C18.25 12.792 16.792 14.25 15 14.25H13.75V12C13.75 11.586 13.414 11.25 13 11.25C12.586 11.25 12.25 11.586 12.25 12V14.25H5C3.208 14.25 1.75 12.792 1.75 11V10.646C2.903 10.319 3.75 9.256 3.75 8C3.75 6.744 2.903 5.681 1.75 5.354V5C1.75 3.208 3.208 1.75 5 1.75H12.25V4C12.25 4.414 12.586 4.75 13 4.75C13.414 4.75 13.75 4.414 13.75 4V1.75H15C16.792 1.75 18.25 3.208 18.25 5V5.354C17.097 5.681 16.25 6.744 16.25 8C16.25 9.256 17.097 10.319 18.25 10.646ZM13.75 7V9C13.75 9.414 13.414 9.75 13 9.75C12.586 9.75 12.25 9.414 12.25 9V7C12.25 6.586 12.586 6.25 13 6.25C13.414 6.25 13.75 6.586 13.75 7Z" fill="#E30022"/>
</svg>
