<svg width="96" height="70" viewBox="0 0 96 70" fill="none" xmlns="http://www.w3.org/2000/svg">
<path d="M20.3305 10.2977C19.4759 9.44309 19.4759 8.05756 20.3305 7.20298C20.7563 6.77715 21.3164 6.5614 21.8764 6.5614C22.4364 6.5614 22.9965 6.77423 23.4223 7.20298L49.6723 33.453C50.5269 34.3076 50.5269 35.6931 49.6723 36.5477L23.4223 62.7977C22.5677 63.6522 21.1822 63.6522 20.3276 62.7977C19.473 61.9431 19.473 60.5576 20.3276 59.703L45.0319 34.9989L20.3305 10.2977Z" fill="white"/>
<path d="M46.3305 10.2977C45.4759 9.44309 45.4759 8.05756 46.3305 7.20298C46.7563 6.77715 47.3164 6.5614 47.8764 6.5614C48.4364 6.5614 48.9965 6.77423 49.4223 7.20298L75.6723 33.453C76.5269 34.3076 76.5269 35.6931 75.6723 36.5477L49.4223 62.7977C48.5677 63.6522 47.1822 63.6522 46.3276 62.7977C45.473 61.9431 45.473 60.5576 46.3276 59.703L71.0319 34.9989L46.3305 10.2977Z" fill="white"/>
</svg>
