<svg width="20" height="18" viewBox="0 0 20 18" fill="none" xmlns="http://www.w3.org/2000/svg">
<path d="M6.5 0.75C4.967 0.75 3.68701 1.82 3.34601 3.25H1C0.586 3.25 0.25 3.586 0.25 4C0.25 4.414 0.586 4.75 1 4.75H3.34601C3.68701 6.18 4.967 7.25 6.5 7.25C8.292 7.25 9.75 5.792 9.75 4C9.75 2.208 8.292 0.75 6.5 0.75ZM6.5 5.75C5.535 5.75 4.75 4.965 4.75 4C4.75 3.035 5.535 2.25 6.5 2.25C7.465 2.25 8.25 3.035 8.25 4C8.25 4.965 7.465 5.75 6.5 5.75ZM12.25 4C12.25 3.586 12.586 3.25 13 3.25H19C19.414 3.25 19.75 3.586 19.75 4C19.75 4.414 19.414 4.75 19 4.75H13C12.586 4.75 12.25 4.414 12.25 4ZM19 13.25H16.654C16.313 11.82 15.033 10.75 13.5 10.75C11.708 10.75 10.25 12.208 10.25 14C10.25 15.792 11.708 17.25 13.5 17.25C15.033 17.25 16.313 16.18 16.654 14.75H19C19.414 14.75 19.75 14.414 19.75 14C19.75 13.586 19.414 13.25 19 13.25ZM13.5 15.75C12.535 15.75 11.75 14.965 11.75 14C11.75 13.035 12.535 12.25 13.5 12.25C14.465 12.25 15.25 13.035 15.25 14C15.25 14.965 14.465 15.75 13.5 15.75ZM7.75 14C7.75 14.414 7.414 14.75 7 14.75H1C0.586 14.75 0.25 14.414 0.25 14C0.25 13.586 0.586 13.25 1 13.25H7C7.414 13.25 7.75 13.586 7.75 14Z" fill="#E30022"/>
</svg>
