<svg width="20" height="20" viewBox="0 0 20 20" fill="none" xmlns="http://www.w3.org/2000/svg">
<path d="M16.816 2.70946L12.418 0.75536C10.903 0.0823604 9.09697 0.0823604 7.58197 0.75536L3.18402 2.70946C1.37402 3.51346 0.25 5.14738 0.25 6.97338V13.0234C0.25 14.8494 1.37402 16.4823 3.18402 17.2873L7.58301 19.2414C8.33301 19.5744 9.15499 19.7414 9.97699 19.7444C9.98499 19.7444 9.992 19.7494 10 19.7494C10.008 19.7494 10.015 19.7454 10.023 19.7444C10.845 19.7414 11.667 19.5744 12.417 19.2414L16.816 17.2873C18.626 16.4833 19.75 14.8494 19.75 13.0234V6.97338C19.75 5.14738 18.626 3.51346 16.816 2.70946ZM8.19098 2.12743C8.75798 1.87543 9.379 1.75036 10 1.75036C10.621 1.75036 11.243 1.87543 11.809 2.12743L16.207 4.08141C16.503 4.21241 16.769 4.37637 17.008 4.56237L14.498 5.67846L7.34698 2.50145L8.19098 2.12743ZM3.79199 4.08043L5.49902 3.32238L12.65 6.49938L11.201 7.14342C10.479 7.46342 9.51702 7.46442 8.79602 7.14342L2.98999 4.56237C3.23099 4.37537 3.49699 4.21243 3.79199 4.08043ZM3.79303 15.9154C2.53303 15.3554 1.75 14.2475 1.75 13.0225V6.9724C1.75 6.5514 1.848 6.14735 2.021 5.77135L8.18799 8.51244C8.51899 8.65944 8.88 8.75039 9.25 8.81139V18.1694C8.886 18.1084 8.52902 18.0184 8.19202 17.8684L3.79303 15.9154ZM18.25 13.0234C18.25 14.2474 17.467 15.3564 16.207 15.9164L11.808 17.8703C11.472 18.0194 11.114 18.1104 10.75 18.1704V8.81237C11.12 8.75137 11.481 8.66139 11.812 8.51439L17.979 5.77343C18.151 6.14943 18.25 6.55335 18.25 6.97435V13.0234Z" fill="#E30022"/>
</svg>
