<svg width="20" height="20" viewBox="0 0 20 20" fill="none" xmlns="http://www.w3.org/2000/svg">
<path d="M18.1097 3.0965C16.8627 1.5835 15.1297 0.750488 13.2277 0.750488C12.0837 0.750488 10.9777 1.02847 9.99974 1.55847C9.02274 1.02847 7.91674 0.750488 6.77174 0.750488C4.86974 0.750488 3.13575 1.5835 1.88975 3.0965C0.533754 4.7425 -0.0282512 6.9905 0.384749 9.1095C1.35975 14.1055 6.44774 17.5955 8.59074 18.8635C9.02574 19.1205 9.51274 19.2495 9.99974 19.2495C10.4867 19.2495 10.9747 19.1215 11.4097 18.8635C13.5517 17.5945 18.6407 14.1055 19.6157 9.1095C20.0277 6.9905 19.4657 4.7425 18.1097 3.0965ZM18.1427 8.82251C17.2847 13.2215 12.6137 16.4075 10.6447 17.5725C10.2477 17.8085 9.75175 17.8075 9.35475 17.5725C7.38575 16.4075 2.71473 13.2215 1.85673 8.82251C1.52773 7.13851 1.97374 5.35448 3.04674 4.05048C4.00374 2.88948 5.32574 2.25049 6.77174 2.25049C7.78974 2.25049 8.76575 2.53049 9.59575 3.06049C9.84175 3.21749 10.1577 3.21749 10.4037 3.06049C11.2337 2.53049 12.2097 2.25049 13.2277 2.25049C14.6727 2.25049 15.9957 2.88948 16.9527 4.05048C18.0257 5.35448 18.4707 7.13751 18.1427 8.82251Z" fill="#E30022"/>
</svg>
